# xmcd
#
# Track frame offsets: 
#        150
#        16128
#        34002
#        51681
#        68169
#        87310
#        101968
#        120283
#        141610
#        159219
#        177983
#        193035
#        218911
#        235384
#        258257
#        307899
#
# Disc length: 4247 seconds
#
# Revision: 2
# Processed by: cddbd v1.5.2PL0 Copyright (c) Steve Scherf et al.
# Submitted via: ExactAudioCopy v1.1
#
DISCID=e1109510
DTITLE=Professor Green - At Your Inconvenience
DYEAR=2011
DGENRE=Hip-Hop
TTITLE0=At Your Inconvenience
TTITLE1=D.P.M.O.
TTITLE2=Professor Green - Emeli Sande - Read All About It
TTITLE3=Professor Green - Luciana - Trouble
TTITLE4=Professor Green - Fink - Spinning Out
TTITLE5=Professor Green - Ruth Anne - Remedy
TTITLE6=How Many Moons
TTITLE7=Professor Green - Sierra Kusterbeck - Avalon
TTITLE8=Astronaut
TTITLE9=Doll
TTITLE10=Professor Green - Ed Drewett - Never Be A Right Time
TTITLE11=Professor Green - Royce Da 5'9'' - Kobe - Today I Cried
TTITLE12=Professor Green - Hadyon - Nightmares
TTITLE13=Forever Falling
TTITLE14=Professor Green - Chynaman - Cores - Into The Ground - Upper Cl
TTITLE14=apton Dance
TTITLE15=Data Track
EXTD=
EXTT0=
EXTT1=
EXTT2=
EXTT3=
EXTT4=
EXTT5=
EXTT6=
EXTT7=
EXTT8=
EXTT9=
EXTT10=
EXTT11=
EXTT12=
EXTT13=
EXTT14=
EXTT15=
PLAYORDER=
